<?xml version="1.0" encoding="UTF-8"?>
<svg id="Capa_4" data-name="Capa 4" xmlns="http://www.w3.org/2000/svg" viewBox="0 0 574.47 273.61">
  <defs>
    <style>
      .cls-1 {
        fill: #fff;
      }

      .cls-2 {
        fill: #4400fd;
      }
    </style>
  </defs>
  <g>
    <path class="cls-1" d="M165.44,166.09c-29.44,0-48.95,18.95-48.95,48.59s20.62,47.26,47.46,47.26c24.56,0,48.38-15.38,48.38-48.93,0-27.58-18.75-46.92-46.89-46.92ZM164.69,241.51c-12.19,0-18.76-11.82-18.76-27.57,0-13.5,5.07-27.56,18.76-27.56,12.94,0,18.19,13.86,18.19,27.56,0,16.51-7.13,27.57-18.19,27.57ZM302.36,168.17h-28.69v54.58c0,2.25-.2,4.51-.94,6.18-1.87,4.52-6.37,9.95-14.26,9.95-9.94,0-14.24-8.07-14.24-21.38v-49.33h-28.7v53.84c0,28.3,13.69,39.93,32.26,39.93,16.52,0,25.13-9.38,28.7-15.01h.57l1.31,12.95h24.75c-.38-7.7-.75-17.45-.75-29.44v-62.27ZM543.95,203.8c-11.26-3.93-14.82-6.18-14.82-10.51,0-4.68,3.93-7.5,10.88-7.5,7.88,0,15.74,2.99,19.89,5.25l5.05-19.7c-5.62-2.8-15.19-5.25-25.88-5.25-22.7,0-37.33,12.96-37.33,30.21-.19,10.68,7.13,21.01,26.07,27.39,10.69,3.55,13.51,5.79,13.51,10.49s-3.57,7.68-12.2,7.68-19.31-3.74-24.58-6.93l-5.06,20.45c6.95,3.75,17.63,6.55,29.64,6.55,26.26,0,39.76-12.75,39.76-29.82-.2-13.49-7.5-22.32-24.94-28.32ZM365.39,166.09c-15.19,0-24.57,8.82-28.32,14.63h-.57l-1.31-12.56h-24.75c.37,8.07.75,17.81.75,29.24v62.47h28.51v-52.9c0-2.62.37-5.25,1.12-7.12,1.88-5.25,6.56-10.69,14.44-10.69,10.32,0,14.44,8.06,14.44,19.88v50.82h28.51v-54.4c0-26.99-14.07-39.39-32.82-39.39ZM495.93,126.71h-28.51v49.71h-.37c-4.13-6.38-12.94-10.33-24.19-10.33-21.95,0-41.27,17.84-41.07,48.77,0,28.53,17.44,47.08,39.19,47.08,11.81,0,22.89-5.24,28.69-15.58h.38l1.31,13.52h25.32c-.38-6.19-.75-17.07-.75-27.39v-105.78ZM467.41,219c0,2.43-.18,4.5-.74,6.55-1.69,8.06-8.25,13.7-16.51,13.7-11.82,0-19.51-9.77-19.51-25.32,0-14.45,6.75-26.07,19.69-26.07,8.82,0,15,6.37,16.69,14.06.19,1.5.37,3.55.37,5.06v12.01Z"/>
    <path class="cls-1" d="M143.71,119.75c.97,12.32,13.11,18.19,27,18.19,10.18,0,18.39-1.38,26.42-3.91l3.91,20.13c-9.79,3.93-21.72,6.07-34.63,6.07-32.48,0-51.07-18.97-51.07-48.92,0-24.26,15.06-51.06,48.33-51.06,30.91,0,42.65,24.07,42.65,47.75,0,5.07-.59,9.58-.98,11.74h-61.63ZM178.73,99.39c0-7.24-3.13-19.36-16.83-19.36-12.51,0-17.6,11.34-18.38,19.36h35.21Z"/>
    <path class="cls-1" d="M242.71,36.4v26.02h21.33v21.9h-21.33v34.62c0,11.55,2.74,16.84,11.74,16.84,4.1,0,5.86-.2,8.8-.79l.19,22.5c-3.91,1.56-10.95,2.73-19.37,2.73-9.58,0-17.61-3.53-22.3-8.4-5.46-5.67-8.21-14.88-8.21-28.37v-39.13h-12.71v-21.9h12.71v-18.01l29.15-8.01Z"/>
    <path class="cls-1" d="M299.84,36.4v26.02h21.33v21.9h-21.33v34.62c0,11.55,2.74,16.84,11.73,16.84,4.11,0,5.87-.2,8.8-.79l.2,22.5c-3.92,1.56-10.96,2.73-19.38,2.73-9.58,0-17.6-3.53-22.29-8.4-5.48-5.67-8.23-14.88-8.23-28.37v-39.13h-12.71v-21.9h12.71v-18.01l29.16-8.01Z"/>
    <path class="cls-1" d="M345.61,119.75c.98,12.32,13.12,18.19,27.01,18.19,10.17,0,18.38-1.38,26.41-3.91l3.91,20.13c-9.78,3.93-21.72,6.07-34.63,6.07-32.48,0-51.06-18.97-51.06-48.92,0-24.26,15.06-51.06,48.33-51.06,30.9,0,42.65,24.07,42.65,47.75,0,5.07-.59,9.58-.98,11.74h-61.64ZM380.64,99.39c0-7.24-3.13-19.36-16.83-19.36-12.52,0-17.6,11.34-18.39,19.36h35.22Z"/>
    <path class="cls-1" d="M411.37,93.92c0-14.09-.41-23.29-.79-31.5h25.62l.98,17.61h.78c4.89-13.9,16.63-19.77,25.83-19.77,2.73,0,4.11,0,6.25.39v28.18c-2.15-.6-4.7-.97-8.02-.97-10.95,0-18.39,5.86-20.36,15.05-.39,1.96-.58,4.3-.58,6.66v48.52h-29.73v-64.17Z"/>
  </g>
  <path class="cls-2" d="M45.37,124.38l-3.6-3.72c-2.01-3.13-3.17-6.83-3.17-10.83,0-11.12,9.02-20.16,20.16-20.16s20.16,9.04,20.16,20.16c0,9.54-6.61,17.48-15.47,19.59l23.25,23.26c13.99-9.14,23.26-24.88,23.26-42.85,0-28.27-22.93-51.18-51.2-51.18-8.62,0-16.72,2.13-23.85,5.88V9.71H7.55l.13,103.64c.8,11.75,5.57,22.4,12.95,30.63l50.52,50.25c.58.47,1.14.95,1.69,1.5,7.86,7.88,7.85,20.64-.03,28.51-7.88,7.87-20.64,7.85-28.5-.03-7.87-7.89-7.85-20.64.02-28.51,2.41-2.41,5.27-4.05,8.31-4.97l-22.85-23.08c-2.61,1.77-5.08,3.78-7.38,6.08-20.02,19.97-20.04,52.38-.09,72.4,19.98,20.03,52.4,20.05,72.41.08,19.17-19.13,20-49.68,2.47-69.79l-51.83-52.04Z"/>
</svg>